<svg width="32" height="32" viewBox="0 0 32 32" fill="none" xmlns="http://www.w3.org/2000/svg">
<path fill-rule="evenodd" clip-rule="evenodd" d="M18.9276 3.17252C18.9634 3.12488 18.9537 3.05729 18.9061 3.02157C18.8734 2.99706 18.8297 2.99312 18.7932 3.01138C18.7399 3.03801 18.7183 3.10278 18.7449 3.15604L18.8199 3.30595C18.6967 3.0596 18.6966 3.05967 18.6966 3.05967L18.6935 3.06124L18.6854 3.06533L18.6554 3.08073C18.6294 3.09416 18.5917 3.11383 18.5441 3.13934C18.4489 3.19035 18.3136 3.2648 18.1515 3.35936C17.8278 3.54815 17.3946 3.81878 16.9599 4.14483C16.5268 4.46965 16.0827 4.85646 15.7444 5.27934C15.4092 5.6983 15.1533 6.18348 15.1533 6.6995C15.1533 7.20708 14.4837 7.90762 13.9965 7.76532C13.5344 7.63035 13.0653 7.54637 12.6127 7.54637C11.4598 7.54637 10.59 7.69052 10.0037 7.83708C9.71065 7.91034 9.48871 7.98415 9.3379 8.0407C9.2625 8.06898 9.20489 8.09293 9.16508 8.11035C9.14518 8.11906 9.12973 8.12613 9.11872 8.13129L9.10555 8.13755L9.10147 8.13955L8.96143 8.20956C8.96143 8.20956 9.09906 8.14074 9.2253 8.39323L9.16787 8.27837C9.12987 8.20236 9.03744 8.17155 8.96143 8.20956C8.87557 8.25249 8.84955 8.3627 8.90715 8.4395C8.95814 8.50749 9.05459 8.52126 9.12257 8.47028L9.2253 8.39323L8.99992 8.56319L9.00097 8.56459L9.00491 8.56982L9.01989 8.58958C9.03296 8.60677 9.05213 8.63185 9.07683 8.66385C9.12622 8.72784 9.19781 8.81955 9.28716 8.93124C9.46571 9.15443 9.71593 9.45829 10.0023 9.78046C10.2883 10.1022 10.6128 10.445 10.94 10.7449C11.2638 11.0417 11.6043 11.3097 11.9219 11.4685C12.1139 11.5645 12.3445 11.6033 12.5806 11.6117C12.8198 11.6203 13.0853 11.5982 13.3603 11.557C13.9102 11.4745 14.5256 11.311 15.0963 11.1326C15.5665 10.9857 16.0183 11.4415 15.8453 11.9028L15.1052 13.8766C14.9957 14.1686 15.1436 14.494 15.4356 14.6035C15.7275 14.7129 16.0529 14.565 16.1624 14.2731L17.5831 10.4846C17.6028 10.4322 17.8114 10.3433 17.8614 10.3183C17.9147 10.2916 17.7985 10.2962 17.7719 10.243L17.6972 10.0937C17.8201 10.3394 17.8202 10.3393 17.8202 10.3393L17.8233 10.3378L17.8314 10.3337L17.8614 10.3183C17.8874 10.3049 17.9251 10.2852 17.9727 10.2597C18.0679 10.2087 18.2032 10.1342 18.3654 10.0396C18.689 9.85086 19.1222 9.58022 19.5569 9.25418C19.99 8.92936 20.4341 8.54255 20.7724 8.11966C21.1076 7.7007 21.3635 7.21553 21.3635 6.6995C21.3635 5.74114 20.7342 4.82558 20.1631 4.18311C19.8709 3.85443 19.5796 3.58144 19.3617 3.39075C19.2525 3.29523 19.1613 3.21992 19.0968 3.16813C19.0646 3.14222 19.039 3.12218 19.0213 3.1084L18.9061 3.02157L18.9948 3.08814L18.9932 3.08689C18.9932 3.08689 18.9923 3.08626 18.823 3.31209L18.9276 3.17252ZM17.1338 10.0743C17.131 10.0822 17.137 10.0898 17.1448 10.0928L17.1633 10.0997C17.1897 10.1096 17.2086 10.0748 17.1857 10.0583C17.1674 10.045 17.1415 10.053 17.1338 10.0743ZM17.575 10.2519L17.5724 10.2531L17.5715 10.25L17.693 10.0881L17.5892 10.2265C17.5832 10.2345 17.5784 10.243 17.575 10.2519ZM19.2182 8.80252C18.8713 9.06267 18.4324 8.69821 18.5647 8.28531C18.6966 7.87359 18.7972 7.49057 18.8704 7.11757C19.033 6.28968 19.0599 5.5177 19.0032 4.59828C18.9974 4.50492 18.9163 4.43459 18.823 4.44123C18.7297 4.44786 18.6595 4.52894 18.6653 4.6223C18.7205 5.52048 18.6934 6.26134 18.538 7.0523C18.3955 7.77789 18.1441 8.5511 17.7431 9.5313C17.7075 9.61829 17.5976 9.64527 17.5269 9.58337C17.3214 9.40357 17.0481 9.14727 16.7757 8.84081C16.2176 8.213 15.7178 7.43485 15.7178 6.6995C15.7178 6.36868 15.8853 6.00699 16.1853 5.63203C16.4821 5.26099 16.8849 4.9068 17.2986 4.59648C17.7108 4.28739 18.1244 4.02873 18.4359 3.84702C18.4808 3.82083 18.5235 3.79627 18.5638 3.77343C18.7007 3.69565 18.8714 3.71194 18.9899 3.81563C19.1954 3.99544 19.4687 4.25174 19.7411 4.55819C20.2992 5.18601 20.799 5.96416 20.799 6.6995C20.799 7.03033 20.6315 7.39201 20.3315 7.76698C20.0347 8.13802 19.6319 8.4922 19.2182 8.80252ZM15.8601 9.20287C16.0059 9.28623 15.9081 9.49129 15.7473 9.44264C15.108 9.2492 14.606 9.13687 14.1877 9.09247C13.5601 9.02585 13.1205 9.11219 12.6918 9.29901C12.6061 9.33638 12.5715 9.43836 12.6127 9.52235C12.6539 9.60634 12.7551 9.64045 12.8411 9.60349C13.2145 9.44285 13.5937 9.37006 14.152 9.42932C14.6861 9.48602 15.3833 9.66353 16.3909 10.0065C16.4253 10.0182 16.4263 10.0663 16.3924 10.0794C16.0079 10.228 15.4848 10.4197 14.9279 10.5938C14.3695 10.7683 13.7852 10.9223 13.2765 10.9986C13.0222 11.0368 12.7937 11.0544 12.6007 11.0475C12.4045 11.0405 12.2647 11.0087 12.1744 10.9636C11.9274 10.8401 11.6328 10.6141 11.3215 10.3287C11.0135 10.0464 10.7029 9.71881 10.4243 9.40538C10.1461 9.09242 9.90231 8.79643 9.72801 8.57856C9.70467 8.54928 9.71753 8.50574 9.75319 8.49435C9.86076 8.45999 9.9899 8.42248 10.1406 8.3848C10.6835 8.24908 11.5074 8.11094 12.6127 8.11094C13.6639 8.11094 14.8796 8.64258 15.8601 9.20287Z" fill="#4FFF7A"/>
<path d="M10.0775 24.2565L10.5513 26.6255C10.6305 27.0213 10.9781 27.3063 11.3817 27.3063H13.1772V26.7417H11.3817C11.2472 26.7417 11.1313 26.6467 11.1049 26.5148L10.6311 24.1458L10.0775 24.2565Z" fill="#FFA34F" fill-opacity="0.83"/>
<path fill-rule="evenodd" clip-rule="evenodd" d="M5.83777 15.168C5.83777 15.7265 6.24319 16.1902 6.77577 16.281L8.78435 27.8304C8.90192 28.5064 9.4887 29 10.1749 29H22.348C23.0569 29 23.6559 28.4741 23.7476 27.7711L25.2468 16.277C25.7682 16.1771 26.1623 15.7186 26.1623 15.168C26.1623 14.5444 25.6567 14.0389 25.0331 14.0389H6.96691C6.3433 14.0389 5.83777 14.5444 5.83777 15.168ZM25.0331 14.6034H6.96691C6.6551 14.6034 6.40234 14.8562 6.40234 15.168C6.40234 15.4798 6.6551 15.7326 6.96691 15.7326H24.7485L24.7532 15.6961L25.0331 15.7326C25.3449 15.7326 25.5977 15.4798 25.5977 15.168C25.5977 14.8562 25.3449 14.6034 25.0331 14.6034ZM9.34057 27.7336L7.35162 16.2972H24.6748L23.1877 27.6981C23.1327 28.1199 22.7734 28.4354 22.348 28.4354H10.1749C9.76318 28.4354 9.41111 28.1393 9.34057 27.7336Z" fill="#FFA34F" fill-opacity="0.83"/>
</svg>
